<?xml version="1.0" encoding="UTF-8" standalone="no"?>
<svg
   xmlns:dc="http://purl.org/dc/elements/1.1/"
   xmlns:cc="http://creativecommons.org/ns#"
   xmlns:rdf="http://www.w3.org/1999/02/22-rdf-syntax-ns#"
   xmlns:svg="http://www.w3.org/2000/svg"
   xmlns="http://www.w3.org/2000/svg"
   xmlns:sodipodi="http://sodipodi.sourceforge.net/DTD/sodipodi-0.dtd"
   xmlns:inkscape="http://www.inkscape.org/namespaces/inkscape"
   version="1.0"
   width="198.000000pt"
   height="198.000000pt"
   viewBox="0 0 198.000000 198.000000"
   preserveAspectRatio="xMidYMid meet"
   id="svg4927"
   inkscape:version="0.91 r13725"
   sodipodi:docname="symphony4.svg">
  <defs
     id="defs5047" />
  <sodipodi:namedview
     pagecolor="#ffffff"
     bordercolor="#666666"
     borderopacity="1"
     objecttolerance="10"
     gridtolerance="10"
     guidetolerance="10"
     inkscape:pageopacity="0"
     inkscape:pageshadow="2"
     inkscape:window-width="1366"
     inkscape:window-height="746"
     id="namedview5045"
     showgrid="false"
     inkscape:zoom="1.3485026"
     inkscape:cx="72.849809"
     inkscape:cy="158.76687"
     inkscape:window-x="-8"
     inkscape:window-y="-8"
     inkscape:window-maximized="1"
     inkscape:current-layer="svg4927" />
  <metadata
     id="metadata4929">
Created by potrace 1.10, written by Peter Selinger 2001-2011
<rdf:RDF>
  <cc:Work
     rdf:about="">
    <dc:format>image/svg+xml</dc:format>
    <dc:type
       rdf:resource="http://purl.org/dc/dcmitype/StillImage" />
    <dc:title></dc:title>
  </cc:Work>
</rdf:RDF>
</metadata>
  <rect
     style="opacity:1;fill:#fbfbfb;fill-opacity:1;stroke:#fbfbfb;stroke-width:4.02682734;stroke-miterlimit:4;stroke-dasharray:none;stroke-opacity:1"
     id="rect5114"
     width="195.17317"
     height="195.41318"
     x="1.9729174"
     y="1.8004013" />
  <g
     transform="matrix(0.05064204,0,0,-0.05029937,-1.89636,198.90292)"
     id="g4931"
     style="fill:#e5e5ed;fill-opacity:0.33139536;stroke:none;stroke-opacity:1">
    <path
       d="m 127,3924 c -7,-25 -26,-36 -63,-33 -39,3 -42,1 -9,-5 58,-11 58,-43 0,-64 -43,-16 -43,-17 -5,-29 77,-25 138,-178 80,-200 -16,-7 -30,-25 -30,-41 0,-16 -24,-48 -53,-71 -29,-23 -47,-47 -40,-55 18,-18 132,113 211,243 72,120 131,291 101,291 -11,0 -25,-27 -32,-60 -7,-33 -18,-60 -25,-60 -7,0 -29,27 -49,60 -40,68 -72,77 -86,24 z m 113,-120 c 0,-24 -49,-124 -60,-123 -5,0 -26,33 -46,72 -45,91 -14,141 33,54 17,-31 32,-48 32,-36 1,11 -13,41 -31,65 -17,25 -26,61 -19,79 12,31 91,-65 91,-111 z"
       id="path4933"
       inkscape:connector-curvature="0"
       style="fill:#e5e5ed;fill-opacity:0.33139536;stroke:none;stroke-opacity:1" />
    <path
       d="m 372,3928 c -7,-17 -12,-46 -12,-65 0,-71 -148,-318 -255,-427 C 43,3373 -3,3316 4,3310 c 45,-46 327,364 388,565 24,79 7,124 -20,53 z"
       id="path4935"
       inkscape:connector-curvature="0"
       style="fill:#e5e5ed;fill-opacity:0.33139536;stroke:none;stroke-opacity:1" />
    <path
       d="m 535,3895 c -10,-63 -4,-91 14,-73 19,19 31,138 14,138 -10,0 -23,-29 -28,-65 z"
       id="path4937"
       inkscape:connector-curvature="0"
       style="fill:#e5e5ed;fill-opacity:0.33139536;stroke:none;stroke-opacity:1" />
    <path
       d="m 638,3935 c -9,-99 -20,-151 -51,-242 -19,-56 -36,-107 -37,-113 -13,-63 -117,-221 -223,-337 -72,-80 -126,-151 -118,-158 7,-8 22,-1 32,16 11,17 19,20 19,5 0,-17 17,-18 65,-3 120,38 363,72 625,87 143,8 301,22 350,31 93,17 84,16 -460,-12 -116,-6 -281,-24 -367,-40 -206,-38 -237,-37 -168,6 30,19 55,41 55,50 0,54 189,67 680,47 l 250,-10 -210,26 c -116,14 -311,24 -434,23 l -224,-3 50,46 c 28,25 46,53 41,61 -50,81 310,118 445,46 52,-28 404,-100 392,-81 -5,8 -43,20 -85,27 -42,7 -148,35 -236,64 -87,28 -228,57 -313,65 -125,11 -151,19 -137,42 44,72 315,56 473,-28 52,-28 99,-46 105,-40 14,14 -58,67 -112,82 -48,13 -62,48 -20,48 37,0 79,77 65,120 -17,54 -78,67 -146,32 -111,-58 -83,-6 41,75 85,56 114,84 91,89 -45,9 -231,-134 -305,-236 -56,-77 -171,-117 -171,-60 0,36 148,214 206,250 65,39 58,60 -14,42 -27,-6 -55,-30 -62,-52 -18,-56 -50,-50 -50,10 0,50 -38,72 -42,25 z m 422,-193 c 0,-67 -57,-90 -207,-84 -61,2 -42,62 19,62 16,0 28,8 28,19 0,20 45,35 115,39 32,1 45,-9 45,-36 z"
       id="path4939"
       inkscape:connector-curvature="0"
       style="fill:#e5e5ed;fill-opacity:0.33139536;stroke:none;stroke-opacity:1" />
    <path
       d="m 1505,3938 c 144,-84 81,-301 -93,-321 -59,-7 -117,45 -85,76 8,9 22,4 31,-10 26,-42 108,-18 141,40 56,102 -43,212 -170,188 -154,-29 -237,-193 -156,-309 18,-26 34,-66 35,-89 2,-49 140,-107 180,-76 12,10 62,23 110,29 48,6 95,23 105,37 9,15 17,23 18,17 1,-5 6,-32 11,-59 6,-35 -4,-61 -36,-86 -44,-34 -45,-37 -9,-64 22,-17 31,-38 22,-53 -11,-18 -23,-14 -45,14 -28,36 -28,36 -18,-9 14,-59 -2,-103 -38,-103 -15,0 -56,-29 -90,-65 -168,-177 -613,-306 -843,-245 -53,14 -55,12 -55,-66 0,-157 -180,-254 -293,-157 -66,57 -43,213 32,213 77,0 122,-77 71,-120 -40,-33 -17,-65 37,-48 159,51 98,256 -82,278 -82,9 -185,-20 -185,-53 0,-9 -12,-17 -28,-17 -20,0 -25,-22 -18,-85 6,-49 -3,-122 -21,-174 -37,-106 -29,-129 16,-44 17,34 31,106 31,161 0,164 126,232 281,151 58,-30 89,-149 39,-149 -11,0 -20,21 -20,47 0,94 -134,111 -205,25 -66,-81 -3,-252 94,-252 17,0 31,-9 31,-20 0,-11 -13,-20 -30,-20 -16,0 -30,-10 -30,-21 0,-12 10,-15 22,-8 76,47 148,42 195,-15 l 47,-57 -74,-30 c -41,-17 -69,-36 -64,-42 14,-13 154,30 189,58 17,13 25,13 25,-3 0,-12 13,-22 28,-22 18,0 25,14 18,40 -6,22 -5,40 2,40 29,0 130,-87 120,-103 -6,-9 -1,-17 11,-17 11,0 21,-20 21,-45 0,-25 9,-58 20,-75 14,-22 19,-5 20,61 0,81 -7,94 -65,128 -86,51 -235,209 -234,249 0,24 10,21 40,-15 21,-26 39,-38 39,-27 0,12 -14,35 -31,52 -20,20 -26,48 -17,81 15,62 7,62 140,1 60,-27 118,-50 129,-50 10,0 19,-14 19,-31 0,-17 32,-91 70,-163 73,-138 76,-192 6,-106 -22,27 -54,50 -71,50 -33,0 -53,27 -87,120 -13,33 -27,49 -32,36 -5,-13 2,-43 14,-66 21,-39 20,-41 -17,-22 -22,12 -44,42 -48,67 -7,41 -9,42 -24,8 -22,-48 125,-176 269,-233 28,-11 65,-29 84,-39 54,-32 223,-49 206,-22 -8,13 -26,19 -41,13 -15,-6 -33,-1 -40,9 -7,11 -23,19 -36,17 -59,-7 -78,12 -153,162 -91,181 -91,180 -50,180 17,0 30,-13 30,-29 0,-16 10,-35 23,-43 15,-9 20,1 14,34 -8,43 12,61 175,158 102,61 182,113 178,117 -7,7 -141,-66 -295,-162 -52,-32 -106,-55 -120,-50 -14,5 18,36 71,70 53,34 89,65 80,70 -9,5 -5,6 9,3 13,-4 86,29 162,73 75,43 152,79 171,79 19,0 29,8 23,18 -6,10 18,42 54,72 114,93 124,102 182,169 70,80 117,57 60,-30 -20,-31 -33,-79 -31,-107 8,-71 -44,-141 -78,-107 -20,19 -18,32 8,61 50,55 44,100 -6,54 -22,-20 -40,-58 -40,-85 0,-43 -6,-47 -65,-37 -54,10 -50,6 21,-20 77,-29 90,-29 133,-1 44,29 49,29 75,-11 29,-44 136,-40 136,5 0,11 -20,15 -45,9 -80,-19 -96,10 -80,141 17,131 81,176 139,97 28,-39 35,-76 11,-61 -20,12 -18,-145 2,-197 32,-81 48,-100 85,-100 28,0 40,17 44,64 6,60 9,63 76,52 61,-10 72,-5 82,33 8,32 22,41 51,34 21,-6 51,-5 67,1 39,15 36,106 -3,106 -17,0 -26,8 -20,19 7,10 -4,28 -24,39 -30,18 -28,21 18,21 56,1 96,77 54,103 -15,9 -15,17 1,27 12,7 22,22 22,33 0,11 -8,15 -18,9 -23,-14 -142,10 -142,29 0,8 38,22 85,30 47,9 69,20 50,24 -40,10 -44,29 -14,59 22,22 5,87 -23,87 -29,0 -21,44 13,68 57,42 14,97 -64,83 -47,-9 -66,-6 -62,11 3,12 -8,28 -23,33 -22,8 -25,-4 -16,-51 19,-96 -133,-245 -190,-185 -21,23 -55,41 -77,41 -62,0 -37,235 31,285 73,53 95,-59 39,-195 -43,-103 -22,-110 39,-12 29,44 74,96 102,114 49,32 72,128 30,128 -11,0 -20,-10 -20,-22 0,-12 -18,-45 -40,-73 -42,-53 -52,-38 -22,39 16,43 12,46 -71,52 -103,7 -166,-88 -167,-251 0,-57 -9,-85 -27,-85 -21,0 -22,24 -7,121 15,92 14,132 -6,170 -41,76 -57,58 -34,-38 40,-176 -23,-305 -175,-364 -203,-77 -400,79 -331,262 50,131 289,126 269,-6 -2,-14 -5,-34 -6,-45 -4,-31 -77,-24 -111,11 -63,63 -102,-42 -45,-120 41,-56 206,-33 267,38 85,99 49,312 -52,310 -45,0 -47,-3 -17,-21 z m 764,-176 c 12,-20 -126,-132 -143,-115 -10,10 106,133 125,133 4,0 12,-8 18,-18 z m -23,-147 c 31,-23 31,-29 -11,-78 -46,-54 -215,-99 -215,-57 0,51 -32,13 -36,-44 -10,-125 -158,-205 -235,-127 -56,55 -35,88 30,47 95,-59 181,57 107,144 -61,70 -162,32 -158,-60 3,-76 -57,-65 -64,13 -12,119 156,192 257,110 44,-35 47,-35 147,20 116,64 131,67 178,32 z m -389,-133 c 40,-25 19,-91 -32,-98 -49,-7 -77,35 -58,86 13,33 49,38 90,12 z m 373,-106 c 33,-19 51,-36 40,-36 -11,0 -6,-9 10,-20 85,-56 -80,-77 -194,-26 -42,19 -78,35 -80,36 -3,1 1,22 7,47 15,55 125,55 217,-1 z m -87,-272 c 20,-38 19,-51 -10,-79 -43,-43 -85,-20 -135,74 -20,37 -46,77 -57,88 -28,28 -26,80 4,110 25,25 142,-88 198,-193 z m 34,107 c 80,-41 115,-87 87,-115 -26,-26 -64,0 -126,87 -46,64 -39,69 39,28 z m -184,-237 c 10,-58 6,-74 -18,-74 -38,0 -55,42 -55,136 0,96 55,49 73,-62 z M 998,2831 c -80,-80 -168,-113 -219,-84 -29,18 -58,27 -64,22 -5,-6 -15,3 -22,20 -15,39 34,41 72,4 23,-24 38,-22 96,7 62,32 160,54 137,31 z M 617,2474 c -4,-2 -27,-15 -52,-29 -40,-22 -48,-21 -58,10 -7,19 -32,50 -55,69 -42,34 -42,34 -2,64 37,28 45,25 107,-40 37,-39 64,-72 60,-74 z"
       id="path4941"
       inkscape:connector-curvature="0"
       style="fill:#e5e5ed;fill-opacity:0.33139536;stroke:none;stroke-opacity:1" />
    <path
       d="m 2418,3903 c 221,-312 217,-604 -13,-878 -151,-180 -451,-271 -591,-180 -27,18 -55,27 -62,21 -6,-7 17,-30 52,-51 68,-42 216,-59 217,-25 0,11 12,4 27,-15 30,-40 54,-46 47,-11 -8,38 59,41 73,4 26,-67 -151,-115 -186,-52 -11,19 -25,28 -32,21 -23,-23 117,-137 235,-192 129,-60 133,-66 70,-97 -25,-12 -99,-50 -165,-83 -132,-67 -397,-145 -490,-145 -33,0 -60,-8 -60,-18 0,-58 399,46 626,162 170,88 172,88 178,9 3,-29 12,-53 20,-53 63,0 -4,-37 -86,-48 -180,-24 -497,-162 -498,-217 0,-24 35,-18 64,11 120,120 520,212 755,174 262,-41 520,-149 521,-216 0,-30 -69,-16 -120,24 -180,143 -687,155 -977,23 -123,-56 -158,-64 -210,-49 -53,16 -69,12 -98,-24 -34,-42 -35,-41 -35,47 0,114 -74,145 -151,62 l -44,-48 -12,46 c -18,66 -16,75 17,75 17,0 30,7 30,15 0,8 -79,17 -175,20 -168,5 -401,60 -460,109 -15,13 -25,13 -25,2 0,-40 245,-125 360,-126 109,-1 131,-23 98,-98 -35,-78 -49,-78 -76,1 -12,35 -28,58 -35,51 -22,-22 36,-134 70,-136 21,-1 24,-5 8,-11 -28,-12 -34,-99 -8,-115 9,-6 29,39 43,100 33,135 67,188 101,154 37,-36 27,-211 -14,-241 -32,-23 -31,-25 9,-25 224,0 464,-313 464,-606 0,-85 2,-88 63,-90 35,-1 68,-10 75,-20 7,-10 36,-24 65,-31 123,-30 89,-122 -38,-103 -129,19 -145,28 -147,87 -2,42 -5,45 -13,13 -45,-183 -204,-393 -345,-457 -27,-12 -54,-27 -60,-33 -132,-139 -880,-103 -880,42 0,30 -6,70 -13,88 -10,26 -4,32 25,26 21,-5 36,-19 33,-33 -4,-16 11,-20 45,-11 37,9 50,4 50,-19 0,-43 -36,-61 -69,-34 -15,13 -32,15 -39,5 -6,-10 12,-28 40,-41 69,-32 79,-29 83,20 2,24 14,50 28,59 17,10 6,23 -34,39 -157,62 -189,81 -189,109 0,31 31,42 43,15 53,-119 545,-135 787,-25 344,157 323,685 -31,780 -105,29 -279,-4 -319,-61 -37,-51 -68,-50 -54,1 6,22 1,45 -9,52 -11,7 -15,25 -9,40 6,15 6,28 -1,28 -14,0 -134,-66 -147,-81 -36,-41 -80,-35 -80,11 0,37 -13,52 -55,61 -30,7 -64,15 -75,17 -11,3 14,27 55,54 41,26 75,60 75,74 0,16 -24,8 -65,-23 -94,-72 -120,-72 -137,-3 -11,46 -14,34 -12,-50 3,-144 -33,-211 -153,-290 -48,-32 -52,-39 -23,-55 59,-33 8,-174 -64,-175 -60,0 -69,178 -9,182 18,2 -11,10 -66,19 -54,9 -123,35 -155,58 l -56,42 2,-75 c 2,-42 7,-60 12,-41 11,43 27,43 120,5 l 72,-31 -66,-59 c -37,-33 -84,-60 -104,-60 -36,0 -47,-22 -23,-46 15,-16 130,46 153,81 21,33 56,13 42,-24 -7,-17 11,-40 44,-57 l 55,-29 -81,-86 -81,-87 -32,63 c -18,35 -33,77 -33,94 0,17 -10,31 -22,31 -13,0 -16,-22 -8,-61 11,-47 5,-69 -23,-91 -34,-26 -32,-27 16,-9 47,16 55,13 66,-30 13,-53 51,-67 51,-19 0,41 19,38 74,-13 25,-24 52,-37 61,-29 8,8 -7,31 -33,51 -48,35 -48,36 -10,88 46,63 55,64 116,11 50,-43 50,-98 1,-98 -51,0 -50,-39 2,-122 C 544,644 369,300 57,300 26,300 0,290 0,278 c 0,-26 155,-10 250,27 207,79 290,354 180,592 -60,128 -59,123 -12,123 133,0 198,-389 98,-587 -28,-56 -33,-84 -18,-99 27,-27 28,-54 2,-54 -11,0 -20,14 -20,30 0,17 -10,30 -21,30 -50,0 -6,-70 48,-76 51,-6 54,-3 34,33 -27,51 -27,103 0,103 11,0 25,-26 32,-58 11,-55 13,-56 64,-30 69,36 76,35 89,-12 12,-47 98,-55 138,-13 21,23 29,20 46,-15 34,-68 122,-67 139,2 13,51 16,53 40,21 39,-53 42,-45 34,92 l -6,128 61,9 c 69,10 74,-4 64,-184 -5,-79 -2,-86 21,-55 26,34 28,34 52,-5 20,-32 20,-40 0,-42 -14,-1 -52,-4 -85,-6 -75,-5 -279,-99 -356,-164 -66,-56 -88,-52 -56,9 31,58 27,117 -10,131 -59,23 -124,12 -137,-22 -11,-29 -16,-30 -31,-6 -9,15 -13,35 -8,43 5,8 -1,20 -13,27 -23,15 -17,-79 7,-103 8,-7 14,-44 14,-80 0,-37 9,-67 20,-67 11,0 20,40 20,90 0,87 2,90 60,90 65,0 80,-45 39,-122 -39,-72 29,-62 213,32 290,150 466,149 623,-1 91,-88 119,-108 95,-68 -39,62 204,151 361,132 107,-13 229,-54 229,-77 0,-9 13,-16 28,-16 15,0 33,-14 39,-30 7,-17 28,-30 47,-29 28,0 23,12 -26,55 -63,55 -72,124 -17,124 46,0 34,29 -26,63 -207,120 -662,77 -577,-53 23,-35 25,-52 9,-62 -27,-17 -81,49 -64,78 7,11 -15,-1 -50,-27 -73,-54 -107,-39 -51,23 195,216 616,221 877,11 l 58,-47 92,62 c 92,62 137,100 303,258 106,100 228,162 358,184 119,20 190,47 129,49 -206,6 -391,-88 -626,-318 -139,-135 -208,-181 -274,-181 -49,0 -31,28 52,79 43,27 152,118 241,203 188,179 323,251 512,275 l 136,18 -110,2 c -209,5 -375,-78 -580,-287 -162,-167 -291,-257 -333,-234 -28,16 -21,25 44,56 43,20 141,101 218,179 244,246 383,320 638,342 l 143,12 0,-160 c 1,-102 10,-171 27,-191 15,-18 21,-41 14,-52 -6,-10 -3,-25 9,-32 51,-32 18,-70 -62,-70 -120,0 -314,-105 -451,-243 -157,-159 -108,-149 64,13 146,137 237,179 437,204 138,17 115,-35 -29,-66 -154,-32 -215,-60 -317,-144 -49,-41 -98,-80 -110,-88 -11,-8 -15,-19 -8,-26 7,-7 65,28 129,78 163,126 396,203 492,163 50,-22 44,-4 -25,69 -33,35 -60,76 -60,90 0,15 -10,30 -23,34 -13,5 -27,73 -32,162 -6,85 -18,154 -27,154 -9,0 -3,42 12,93 42,139 58,300 32,316 -12,7 -22,27 -22,43 0,84 -151,148 -240,102 -72,-37 -71,-126 2,-119 66,7 106,-39 90,-102 -10,-40 -3,-50 38,-58 28,-5 50,-2 50,8 0,9 -12,17 -27,17 -19,0 -24,17 -18,51 13,67 -44,129 -121,129 -50,0 -55,4 -34,30 114,138 321,-129 240,-310 -3,-5 -6,-23 -7,-38 -3,-30 -15,-33 -211,-50 -132,-11 -293,-62 -338,-106 -15,-14 -35,-26 -45,-26 -10,0 -87,-68 -171,-151 -150,-149 -328,-289 -368,-289 -44,0 -16,57 40,80 33,14 138,100 235,192 96,92 191,173 210,179 19,7 35,19 35,27 0,14 94,59 246,120 30,12 118,28 195,35 76,7 139,19 139,26 0,8 -90,2 -200,-12 -271,-35 -371,-87 -614,-322 -218,-210 -386,-317 -386,-245 0,11 11,20 25,20 29,0 82,44 325,271 295,275 464,370 584,328 34,-11 79,-12 116,-1 l 60,19 -73,1 c -61,2 -204,79 -150,81 10,1 7,14 -7,31 -138,166 224,370 384,216 71,-68 115,-41 71,45 -19,35 -34,46 -43,32 -8,-13 -3,-23 10,-23 14,0 20,-5 13,-11 -6,-7 -37,1 -68,17 -147,74 -302,47 -375,-63 -31,-47 -34,-48 -26,-9 12,56 -24,226 -48,226 -22,0 -22,3 3,-117 77,-357 -351,-591 -604,-330 -144,148 -43,427 154,427 158,0 275,-208 142,-253 -94,-32 -140,8 -123,108 13,74 -3,80 -90,35 -161,-83 -66,-326 135,-345 227,-21 371,198 278,421 -93,221 -565,315 -806,160 -26,-17 -81,-26 -137,-22 l -93,6 67,34 c 238,121 257,126 496,126 247,0 397,-54 495,-178 45,-57 151,-81 360,-80 142,0 165,-4 165,-33 0,-19 18,-39 40,-45 48,-12 56,36 9,54 -36,13 47,111 95,113 16,0 11,12 -13,30 -43,33 -34,36 99,33 l 80,-2 -85,20 c -68,16 -94,14 -129,-11 -25,-17 -34,-31 -20,-31 44,0 25,-35 -31,-57 -137,-53 -215,-62 -340,-41 -164,29 -172,50 -24,63 66,6 134,23 151,36 16,14 70,25 119,24 64,-1 89,7 89,27 0,36 122,45 275,19 64,-11 65,-10 63,64 -2,59 -5,65 -15,29 -14,-51 -18,-53 -101,-34 -34,7 -62,29 -68,51 -12,45 -94,54 -94,11 0,-34 -95,-152 -122,-152 -32,0 -19,43 33,105 48,57 49,61 15,85 -41,27 -106,32 -106,7 0,-9 23,-17 51,-17 70,0 36,-63 -72,-131 -80,-50 -334,-121 -355,-99 -24,23 196,208 262,221 55,10 73,28 105,100 22,49 45,89 53,89 8,0 10,12 4,27 -7,19 9,27 51,29 34,1 61,-7 61,-17 0,-11 -18,-19 -40,-19 -22,0 -40,-8 -40,-19 0,-10 41,-15 91,-12 99,7 148,31 62,31 -43,0 -53,9 -53,48 0,49 73,112 129,112 17,0 31,9 31,20 0,11 -35,14 -87,7 -48,-6 -135,-1 -193,11 -124,27 -118,30 -131,-70 -8,-69 -61,-143 -85,-119 -21,21 46,306 93,398 58,112 220,281 363,379 50,34 95,67 100,73 6,7 35,28 65,47 30,19 55,43 55,54 0,25 -64,1 -94,-35 -13,-17 -38,-25 -55,-18 -17,6 -30,5 -28,-3 8,-56 -6,-72 -33,-36 -27,36 34,132 84,132 7,0 30,15 51,34 29,26 41,29 53,9 9,-15 15,-2 15,34 l 0,60 -81,-64 c -45,-35 -86,-68 -92,-74 -5,-6 -73,-55 -150,-109 -145,-102 -237,-187 -257,-240 -7,-16 -29,-30 -51,-30 -27,0 -43,-18 -51,-58 -56,-254 -417,-359 -613,-178 -208,193 -29,514 226,407 169,-70 200,-338 34,-297 -104,25 -118,77 -42,156 76,79 -98,108 -176,30 -119,-119 38,-340 217,-308 381,69 382,624 2,760 -81,30 -99,44 -99,84 0,38 7,45 35,34 19,-9 55,-20 80,-25 25,-5 45,-16 45,-24 0,-7 31,-26 69,-40 120,-48 225,-222 245,-407 12,-114 15,-119 28,-56 8,38 6,90 -4,117 -28,73 -22,105 20,105 20,0 47,12 60,27 12,16 68,34 122,41 55,7 100,22 100,32 0,11 25,25 55,32 71,17 285,145 285,171 0,18 -117,-37 -140,-65 -63,-78 -392,-171 -374,-106 6,21 35,127 64,236 53,198 142,413 214,517 31,44 33,55 10,55 -16,0 -34,-18 -40,-39 -5,-23 -25,-38 -47,-36 -58,4 -209,-76 -298,-158 -277,-256 -529,-404 -529,-309 0,24 26,43 80,60 44,13 80,33 80,44 0,11 9,15 19,8 18,-11 236,145 319,228 64,64 172,136 252,168 62,25 70,32 33,33 -76,2 -182,-59 -311,-179 -123,-113 -343,-262 -427,-288 -78,-25 -53,42 30,81 41,19 102,53 134,76 55,38 84,62 210,170 27,24 80,62 119,86 38,23 58,46 45,51 -31,10 -148,-68 -252,-168 -76,-73 -281,-208 -315,-208 -42,0 -10,76 43,101 85,42 366,267 343,275 -12,4 -82,-42 -156,-102 -177,-142 -258,-184 -273,-144 -8,20 15,44 73,73 101,51 240,158 225,172 -6,6 -64,-26 -129,-72 -65,-46 -128,-83 -140,-83 -12,0 -22,-10 -22,-21 0,-12 -9,-16 -20,-9 -37,23 -21,44 85,110 58,36 94,70 80,75 -14,4 -59,-18 -100,-50 -41,-33 -86,-55 -100,-50 -26,9 -26,-45 -1,-85 29,-46 57,-276 47,-384 -19,-203 -21,-216 -32,-226 -7,-5 -33,-55 -60,-110 -26,-55 -81,-137 -123,-182 -41,-45 -71,-87 -65,-92 27,-27 27,-239 1,-217 -30,24 -84,11 -135,-34 -33,-28 -201,23 -236,71 -6,8 -33,25 -60,36 -46,20 -44,23 50,45 171,42 449,218 449,286 0,10 18,38 39,61 21,23 45,69 52,104 8,34 24,75 36,90 45,56 25,438 -29,562 -65,149 -92,192 -109,175 -8,-8 -4,-27 10,-44 13,-16 19,-39 12,-50 -8,-12 1,-21 19,-21 55,0 29,-89 -28,-97 -41,-6 -46,0 -38,43 7,35 2,47 -15,41 -33,-13 -58,68 -31,100 16,19 4,26 -49,27 l -69,2 38,-53 z m 1222,-69 c 0,-14 -14,-45 -31,-70 -18,-25 -52,-105 -77,-179 -42,-124 -46,-130 -57,-73 -14,66 -94,122 -163,112 -59,-9 117,147 203,179 36,14 65,32 65,41 0,9 14,16 30,16 17,0 30,-11 30,-26 z m -969,-138 c 9,-27 5,-47 -8,-52 -13,-4 -23,-15 -23,-25 0,-10 14,-13 30,-6 23,8 31,-5 34,-56 10,-197 -28,-376 -80,-379 -30,-2 -30,-4 2,-12 20,-5 33,-15 30,-23 -35,-69 -90,-143 -109,-143 -46,0 -70,54 -38,86 16,16 41,66 55,111 14,44 43,90 66,101 27,13 30,20 10,21 -24,1 -29,31 -26,161 2,88 -5,160 -15,160 -28,0 -23,75 6,87 44,18 52,14 66,-31 z m 752,-149 c 172,-155 -155,-349 -383,-227 -20,11 -56,20 -79,20 -63,0 -48,26 35,65 42,19 95,52 119,74 39,37 82,25 57,-16 -6,-9 3,-36 20,-60 69,-98 245,-13 180,87 -38,58 -79,57 -88,-2 -4,-25 0,-30 10,-14 24,34 70,0 55,-41 -17,-42 -76,-43 -118,-2 -99,100 86,212 192,116 z m 26,-292 c -7,-36 -21,-74 -31,-84 -10,-10 -18,-34 -18,-53 0,-36 -39,-58 -103,-58 -45,0 -47,80 -2,95 16,5 21,-3 13,-23 -14,-36 22,-44 43,-10 20,31 -32,60 -85,48 -44,-10 -126,40 -126,76 0,34 190,-10 225,-53 28,-36 34,-37 35,-10 0,19 -11,38 -25,44 -17,7 -9,24 25,51 65,53 66,53 49,-23 z m -569,-65 c 0,-16 7,-30 15,-30 18,0 65,-97 65,-134 0,-65 -98,-27 -111,44 -13,68 -49,99 -49,41 0,-103 67,-163 149,-131 51,19 40,149 -16,184 -12,8 -14,21 -5,30 10,9 21,5 26,-9 5,-14 19,-25 30,-25 78,0 164,-185 165,-354 1,-136 -3,-147 -65,-212 -95,-98 -278,-107 -342,-17 -64,91 -43,203 39,203 40,0 53,-29 21,-49 -38,-23 22,-151 77,-163 28,-6 60,-14 70,-16 115,-28 160,208 61,324 -28,32 -221,79 -263,63 -83,-32 -89,-22 -37,61 27,43 50,92 50,108 0,16 18,35 39,42 24,7 35,23 28,41 -7,18 1,29 21,29 18,0 32,-13 32,-30 z m -362,-208 c 24,-16 24,-23 -1,-48 -24,-23 -36,-24 -63,-4 -70,51 -10,99 64,52 z m 1202,-32 c 0,-30 -11,-50 -29,-50 -38,0 -54,29 -39,68 20,51 68,38 68,-18 z m -1284,-34 c 36,-36 30,-49 -36,-76 -33,-14 -60,-33 -60,-42 0,-36 -56,-17 -66,23 -8,31 2,46 38,60 26,10 48,27 48,39 0,28 47,25 76,-4 z m 1213,-14 c 6,-9 -3,-29 -19,-42 -17,-14 -31,-17 -31,-7 -1,9 -10,-4 -20,-30 -16,-40 -24,-43 -50,-22 -38,31 -63,10 -32,-28 18,-21 17,-33 -7,-53 -16,-14 -31,-17 -31,-7 -1,9 -10,-4 -20,-30 -16,-39 -25,-43 -49,-23 -38,32 -38,60 0,60 17,0 30,10 30,23 0,12 29,49 65,81 36,32 74,66 85,76 26,24 65,25 79,2 z m -1401,-94 c 19,-49 14,-68 -17,-68 -37,0 -58,34 -43,71 14,38 45,37 60,-3 z m 1078,-308 c -33,-66 -53,-120 -44,-120 9,0 12,-13 5,-30 -7,-20 -27,-26 -59,-18 -29,8 -48,4 -48,-10 0,-14 -32,-21 -85,-17 -78,5 -86,1 -91,-46 -5,-39 3,-50 35,-50 49,0 54,22 10,39 -45,17 -17,50 31,38 61,-16 53,-98 -12,-115 -76,-19 -118,2 -121,61 -3,51 62,148 99,148 10,0 46,20 81,45 34,24 71,45 83,47 11,1 30,3 43,5 13,2 19,21 13,43 -8,28 -1,40 23,40 18,0 28,9 20,21 -19,31 33,85 58,60 14,-14 1,-58 -41,-141 z m -686,-51 c 77,-72 200,-115 276,-96 46,12 47,10 22,-35 -14,-27 -24,-65 -20,-86 4,-29 -3,-34 -31,-23 -64,24 -254,71 -291,71 -42,0 -44,8 -15,61 32,60 -10,123 -77,115 -62,-7 -87,-83 -35,-103 37,-14 41,9 7,43 -19,19 -14,24 19,24 60,0 75,-36 34,-81 -69,-76 -149,-29 -149,89 0,122 141,133 260,21 z m 635,-184 c 5,-16 -11,-25 -43,-25 -34,0 -52,11 -52,31 0,38 82,32 95,-6 z m 335,-3 c 47,-2 53,-7 30,-22 -53,-34 -240,-17 -240,21 0,10 34,14 75,11 41,-4 102,-8 135,-10 z m -360,-82 c 0,-16 -20,-33 -45,-36 -35,-5 -45,3 -45,36 0,33 10,41 45,36 25,-3 45,-19 45,-36 z m 340,-4 c 13,-12 -16,-17 -78,-12 -57,4 -102,17 -107,32 -10,29 151,12 185,-20 z m -880,-67 c 137,-24 243,-58 293,-92 29,-20 63,-37 75,-37 12,0 22,-8 22,-19 0,-42 -47,-42 -136,0 -312,147 -656,150 -949,9 -113,-55 -135,-60 -135,-29 0,11 65,51 145,89 194,94 443,122 685,79 z m 739,-14 c -19,-64 -145,-190 -206,-205 -49,-12 -163,-113 -163,-145 0,-8 -22,-25 -49,-37 -55,-26 -91,-3 -91,58 0,33 -5,35 -32,13 -19,-17 -36,-19 -45,-7 -7,11 -48,36 -90,56 -69,32 -74,39 -47,66 28,29 85,20 66,-10 -4,-8 25,-16 64,-18 40,-2 82,-16 93,-32 12,-15 32,-24 44,-20 13,5 27,-12 30,-38 6,-37 15,-26 45,52 21,54 68,125 106,158 71,62 77,92 11,56 -35,-18 -38,-15 -30,29 10,49 83,54 101,7 6,-15 23,-9 124,44 58,30 83,20 69,-27 z m -1813,-10 c 16,-33 10,-76 -26,-181 -14,-42 -90,-50 -126,-14 -14,13 21,150 38,150 10,0 18,13 18,28 0,26 26,46 64,50 8,1 22,-14 32,-33 z m 1064,-63 c 235,-61 451,-188 300,-177 -22,2 -40,9 -40,17 0,12 -101,51 -240,93 -97,28 -433,33 -449,6 -7,-11 -34,-21 -58,-21 -25,0 -83,-18 -128,-40 -46,-22 -117,-39 -159,-38 -42,0 -62,6 -46,12 27,10 100,42 270,117 108,47 418,65 550,31 z m -849,-95 c -33,-131 -118,-190 -189,-132 l -43,35 62,75 c 80,97 192,111 170,22 z m 645,-24 c 6,-38 -2,-43 -75,-43 -69,0 -81,6 -81,42 0,33 9,40 40,32 22,-6 45,-2 52,9 19,31 57,7 64,-40 z m -180,-17 c 8,-55 -113,-79 -151,-30 -28,35 1,68 46,51 14,-5 31,0 39,13 20,33 59,13 66,-34 z m 383,29 c -2,-37 -36,-109 -38,-80 0,15 -29,25 -71,25 -57,0 -70,8 -70,40 0,34 13,40 90,40 59,0 90,-8 89,-25 z m -560,-72 c 24,-46 4,-71 -32,-40 -21,17 -27,13 -27,-21 0,-23 -9,-42 -20,-42 -11,0 -20,13 -20,28 0,16 -6,43 -12,61 -9,23 -4,28 20,19 17,-7 32,-2 32,10 0,35 37,26 59,-15 z m 1547,-3 c 8,-30 0,-40 -28,-40 -42,0 -43,3 -26,48 17,44 41,40 54,-8 z m -1678,-67 c -14,-42 -63,-91 -93,-92 -8,-1 -15,-14 -15,-29 0,-31 -54,-58 -82,-41 -10,6 -18,24 -18,40 0,16 -9,29 -20,29 -40,0 -19,56 35,93 111,75 216,75 193,0 z M 716,1651 c 30,-30 -25,-91 -82,-91 -99,1 -118,21 -92,96 l 22,63 72,-30 c 39,-17 75,-34 80,-38 z m 2003,14 c 50,-17 108,-48 129,-68 22,-21 45,-37 52,-37 21,0 60,-129 60,-197 0,-148 -140,-262 -288,-235 -121,23 -188,152 -124,237 38,50 52,43 52,-24 0,-102 123,-155 213,-91 60,42 74,119 36,199 -110,232 -509,108 -484,-150 5,-55 2,-105 -8,-111 -9,-6 -17,1 -17,14 0,14 -7,18 -15,10 -8,-8 21,-46 64,-85 87,-77 80,-94 -47,-115 -71,-11 -182,-88 -182,-126 0,-24 -89,-66 -141,-66 -21,0 -39,-9 -39,-20 0,-11 29,-20 65,-20 l 65,0 -1,-135 c 0,-74 -8,-151 -17,-170 -9,-20 -8,-35 2,-35 40,0 83,140 64,209 -35,127 26,276 132,320 97,39 198,46 276,19 190,-67 400,0 505,160 l 38,59 15,-69 c 20,-92 10,-112 -68,-128 -85,-19 -326,-178 -381,-252 -51,-69 -95,-75 -96,-13 -2,132 -196,204 -286,106 -99,-106 0,-280 116,-204 74,49 46,189 -28,144 -31,-20 -25,-51 9,-51 41,0 38,-34 -6,-58 -60,-32 -95,14 -86,113 8,90 183,69 229,-27 74,-156 -90,-280 -292,-220 -35,11 -55,9 -55,-5 0,-11 42,-33 94,-47 l 93,-27 -58,-38 c -64,-42 -206,-49 -229,-11 -8,13 -35,17 -64,10 -34,-9 -61,-2 -84,21 -19,19 -40,28 -46,21 -7,-7 3,-24 23,-39 32,-23 24,-30 -83,-69 -65,-24 -153,-73 -197,-111 l -79,-67 -99,34 c -83,27 -92,35 -55,45 31,8 43,25 41,58 -2,47 -2,47 -11,2 -22,-114 -115,-40 -135,108 -14,100 -13,102 46,123 66,23 83,5 83,-89 0,-49 7,-59 94,-134 104,-89 191,128 101,254 l -41,58 48,37 c 61,47 72,47 99,-4 14,-26 34,-37 54,-29 18,7 47,-5 70,-29 21,-23 65,-47 97,-53 64,-13 100,-47 49,-47 -17,0 -31,-9 -31,-20 0,-11 14,-20 31,-20 44,0 61,62 24,89 -23,17 -26,32 -11,59 21,38 -13,132 -47,132 -22,0 -21,-23 2,-59 39,-62 -11,-103 -79,-65 -33,19 -60,41 -60,49 0,8 -12,15 -28,15 -63,0 -77,55 -29,120 l 47,63 57,-64 c 40,-45 63,-57 78,-42 25,25 -14,83 -56,83 -40,0 -53,34 -39,100 16,75 63,78 142,10 32,-27 65,-50 74,-50 9,0 11,-9 4,-20 -7,-11 -3,-20 8,-20 45,0 41,41 -7,63 -68,31 -65,59 7,53 32,-2 71,7 87,20 16,13 34,18 41,11 31,-31 114,15 114,63 0,50 -46,70 -70,30 -7,-11 2,-20 20,-20 18,0 27,-9 20,-20 -14,-23 -110,-19 -110,6 0,42 45,94 81,94 21,0 39,9 39,20 0,39 -97,21 -110,-20 -15,-46 -29,-49 -99,-17 -59,27 -67,57 -15,57 50,0 124,56 124,95 0,45 -59,105 -103,105 -51,0 -46,26 8,50 31,14 47,40 51,87 14,138 318,197 563,108 z M 947,1631 c 6,-16 7,-97 1,-180 -18,-287 201,-437 387,-265 127,116 -49,322 -191,223 -65,-46 -72,2 -9,61 122,116 323,14 324,-164 2,-212 -147,-326 -422,-325 -235,0 -498,109 -353,146 47,12 116,106 116,158 0,20 17,28 50,24 28,-3 50,3 50,13 0,10 -8,18 -18,18 -9,0 -22,18 -28,40 -6,25 0,40 16,40 27,0 58,58 40,76 -5,6 -10,0 -10,-13 0,-12 -17,-23 -38,-23 -33,0 -49,27 -64,110 -3,17 92,85 125,89 7,0 18,-12 24,-28 z m 493,-46 c 154,-99 197,-249 129,-448 C 1456,803 861,725 523,998 c -85,68 -87,107 -4,63 33,-18 41,-16 41,8 0,43 23,38 76,-18 130,-138 533,-166 695,-49 274,197 209,558 -100,558 -111,0 -196,-111 -159,-208 17,-44 45,-40 88,13 30,38 44,41 93,24 127,-45 95,-194 -48,-221 -240,-45 -308,360 -75,448 75,29 244,12 310,-31 z m 676,-28 c 3,-16 -22,-49 -56,-74 -65,-48 -167,-67 -171,-33 -1,11 -10,36 -18,56 -20,45 -6,59 86,86 81,23 150,9 159,-35 z M 531,1532 c 124,-124 23,-228 -109,-114 -50,43 -53,62 -12,62 16,0 41,18 55,40 29,48 30,48 66,12 z m 256,-58 c 49,-126 46,-131 -72,-127 -92,3 -104,8 -101,43 3,22 -3,63 -12,91 -16,48 -13,51 38,43 30,-4 61,2 69,14 24,40 45,23 78,-64 z m 1336,-113 c 56,-46 32,-81 -81,-118 -111,-37 -122,-32 -122,64 l 0,86 78,4 c 51,2 94,-11 125,-36 z M 528,1340 c 46,0 49,-6 40,-75 -21,-167 -37,-199 -79,-164 -15,12 -37,17 -48,10 -12,-8 -21,-4 -21,7 0,11 -18,37 -41,58 -39,37 -37,104 3,104 10,0 18,23 18,51 0,44 5,48 39,30 21,-12 61,-21 89,-21 z m 232,-63 c 0,-94 -166,-173 -172,-82 -1,26 5,51 14,56 9,6 12,23 6,38 -8,21 9,27 71,24 60,-2 81,-11 81,-36 z m 819,-714 c 79,-192 -10,-298 -97,-113 -51,109 -53,144 -7,156 69,18 80,13 104,-43 z M 738,552 c 25,-30 0,-111 -55,-177 -79,-94 -131,16 -62,132 46,77 80,91 117,45 z M 900,491 C 900,361 787,221 753,309 c -15,39 8,171 30,171 9,0 17,13 17,28 0,17 19,27 50,25 35,-2 50,-14 50,-42 z m 180,-2 c 0,-139 -76,-274 -130,-229 -33,28 -43,200 -11,200 11,0 15,14 8,30 -9,23 5,30 61,30 52,0 72,-9 72,-31 z m 956,-213 c 15,-15 24,-16 24,-3 0,24 138,5 227,-31 39,-15 53,-32 45,-54 -7,-17 -12,-40 -12,-50 0,-26 -48,-22 -76,6 -25,25 -64,37 -137,43 -24,1 -49,9 -56,16 -8,7 -64,-1 -125,-17 -92,-24 -115,-24 -129,-2 -26,42 -21,51 46,74 85,30 97,28 98,-13 1,-27 6,-24 20,10 20,51 40,56 75,21 z M 1719,132 c 16,-20 17,-32 1,-42 -26,-16 -84,27 -69,52 16,26 41,22 68,-10 z"
       id="path4943"
       inkscape:connector-curvature="0"
       style="fill:#e5e5ed;fill-opacity:0.33139536;stroke:none;stroke-opacity:1" />
    <path
       d="m 1681,474 c -1,-44 76,-76 124,-51 19,10 35,34 34,53 0,32 -2,32 -27,-1 -14,-19 -38,-35 -52,-35 -14,0 -38,16 -52,35 -25,33 -27,33 -27,-1 z"
       id="path4945"
       inkscape:connector-curvature="0"
       style="fill:#e5e5ed;fill-opacity:0.33139536;stroke:none;stroke-opacity:1" />
    <path
       d="m 2683,3915 c 14,-27 27,-31 53,-16 87,50 88,56 8,54 -71,-2 -78,-7 -61,-38 z"
       id="path4947"
       inkscape:connector-curvature="0"
       style="fill:#e5e5ed;fill-opacity:0.33139536;stroke:none;stroke-opacity:1" />
    <path
       d="m 3749,3846 c -40,-62 -38,-66 36,-63 49,2 54,5 19,11 -70,14 -16,66 67,66 37,0 71,7 76,15 26,43 -170,14 -198,-29 z"
       id="path4949"
       inkscape:connector-curvature="0"
       style="fill:#e5e5ed;fill-opacity:0.33139536;stroke:none;stroke-opacity:1" />
    <path
       d="m 419,3785 c -14,-52 -34,-106 -44,-120 -14,-17 -5,-36 28,-63 38,-32 42,-44 22,-65 -14,-14 -25,-41 -25,-61 0,-20 -14,-36 -31,-36 -17,0 -26,-9 -19,-20 7,-11 -2,-26 -19,-32 -17,-7 -31,-25 -31,-40 0,-28 -22,-36 -80,-30 -26,3 -26,1 0,-16 24,-17 18,-30 -38,-81 -63,-55 -70,-57 -93,-26 -29,39 -20,65 22,65 16,0 29,9 29,19 0,30 100,123 119,111 10,-5 13,8 7,30 -7,27 -1,40 19,40 17,0 35,19 41,42 6,23 21,36 33,29 26,-16 27,9 1,49 -19,31 -78,-21 -79,-71 -1,-11 -59,-78 -131,-149 C 16,3227 -1,3200 50,3200 c 17,0 30,-18 30,-40 0,-22 -13,-40 -28,-40 -23,0 -52,-40 -52,-72 0,-29 109,58 240,191 176,178 349,488 255,456 -14,-5 -22,-28 -19,-52 8,-51 -20,-56 -59,-10 -21,26 -22,35 -2,42 14,5 20,18 13,29 -7,11 -4,26 6,33 28,18 50,118 29,131 -10,6 -30,-31 -44,-83 z"
       id="path4951"
       inkscape:connector-curvature="0"
       style="fill:#e5e5ed;fill-opacity:0.33139536;stroke:none;stroke-opacity:1" />
    <path
       d="m 3662,3676 c -83,-183 -126,-341 -98,-358 13,-9 13,-18 -2,-27 -33,-20 -27,-91 9,-91 42,0 291,130 345,181 80,75 45,82 -49,10 -51,-39 -102,-71 -113,-71 -11,0 -49,-22 -85,-50 -55,-42 -67,-44 -77,-18 -16,43 -15,52 6,39 10,-6 23,4 30,21 7,18 25,27 42,21 21,-8 30,2 30,33 1,85 33,105 68,42 l 32,-58 -12,82 c -11,71 -6,87 34,115 45,32 42,70 -4,42 -13,-8 -59,-18 -103,-22 -114,-10 -87,38 32,58 114,19 154,1 186,-88 16,-45 24,-54 25,-27 1,22 -10,63 -25,91 -22,42 -22,55 0,76 15,13 26,40 25,59 -2,31 -4,31 -11,1 -10,-38 -84,-72 -192,-88 -82,-13 -92,-1 -44,52 21,23 24,40 11,48 -12,7 -38,-24 -60,-73 z m 118,-135 c 0,-26 -68,-61 -119,-61 -59,0 -51,33 14,57 72,26 105,27 105,4 z m -100,-109 c 0,-15 -13,-33 -30,-39 -16,-7 -30,-26 -30,-42 0,-17 -9,-31 -20,-31 -25,0 -25,23 0,89 20,54 80,71 80,23 z"
       id="path4953"
       inkscape:connector-curvature="0"
       style="fill:#e5e5ed;fill-opacity:0.33139536;stroke:none;stroke-opacity:1" />
    <path
       d="m 552,3404 c -5,-9 37,-18 94,-19 57,-1 172,-12 254,-25 83,-12 222,-26 310,-30 l 160,-7 -130,17 c -71,9 -202,31 -290,48 -174,33 -382,42 -398,16 z"
       id="path4955"
       inkscape:connector-curvature="0"
       style="fill:#e5e5ed;fill-opacity:0.33139536;stroke:none;stroke-opacity:1" />
    <path
       d="m 1480,3361 c 0,-10 -25,-22 -55,-27 -33,-5 -20,-9 30,-8 56,1 85,11 85,28 0,14 -13,26 -30,26 -16,0 -30,-8 -30,-19 z"
       id="path4957"
       inkscape:connector-curvature="0"
       style="fill:#e5e5ed;fill-opacity:0.33139536;stroke:none;stroke-opacity:1" />
    <path
       d="m 1080,3139 c -101,-24 -587,-77 -725,-78 -30,-1 -55,-10 -55,-21 0,-11 18,-20 41,-20 54,0 163,-57 150,-79 -6,-9 2,-27 17,-40 20,-16 33,-16 41,-2 8,12 4,21 -8,21 -11,0 -21,9 -21,20 0,11 38,20 85,20 195,1 519,66 711,143 141,56 121,68 -28,16 -270,-93 -678,-149 -811,-111 -62,18 -56,20 83,34 344,35 534,63 590,88 68,30 35,34 -70,9 z"
       id="path4959"
       inkscape:connector-curvature="0"
       style="fill:#e5e5ed;fill-opacity:0.33139536;stroke:none;stroke-opacity:1" />
    <path
       d="M 108,3035 C 1,2953 -33,2900 20,2900 c 11,0 20,13 20,28 0,16 36,45 79,65 44,21 80,48 80,62 1,37 -26,31 -91,-20 z"
       id="path4961"
       inkscape:connector-curvature="0"
       style="fill:#e5e5ed;fill-opacity:0.33139536;stroke:none;stroke-opacity:1" />
    <path
       d="m 1300,3060 c -71,-46 -306,-106 -510,-131 l -220,-27 200,7 c 137,5 241,21 330,51 148,50 260,98 260,111 0,15 -28,10 -60,-11 z"
       id="path4963"
       inkscape:connector-curvature="0"
       style="fill:#e5e5ed;fill-opacity:0.33139536;stroke:none;stroke-opacity:1" />
    <path
       d="m 1460,2942 c 0,-11 27,-25 60,-32 57,-13 104,-50 62,-50 -42,0 -454,-276 -421,-282 97,-16 112,-32 194,-202 30,-63 67,-114 82,-115 21,-1 19,12 -9,54 -94,143 -132,225 -103,225 16,0 40,-20 53,-45 13,-25 19,-29 13,-10 -5,19 0,35 12,35 13,0 35,-16 49,-35 25,-33 27,-33 27,0 1,52 152,169 266,208 19,6 35,20 35,29 0,10 14,18 30,18 74,0 33,-38 -179,-167 -34,-21 -64,-45 -68,-55 -3,-10 -15,-13 -25,-7 -45,28 42,-121 91,-156 53,-37 50,-9 -6,48 -34,35 -56,72 -49,84 7,11 45,-16 87,-63 41,-46 80,-84 87,-84 8,0 -5,20 -27,44 -48,51 -59,116 -14,78 16,-12 44,-17 63,-9 23,9 46,0 66,-25 27,-34 28,-35 17,-2 -10,29 -5,34 23,25 24,-7 52,6 80,39 30,34 35,50 16,50 -15,0 -38,-13 -52,-30 -29,-35 -80,-40 -80,-9 0,12 36,37 80,55 93,40 97,50 30,98 -28,20 -83,64 -123,99 l -73,63 -132,-81 c -73,-44 -160,-102 -194,-128 -67,-51 -108,-60 -108,-25 0,14 -19,18 -50,10 -27,-7 -50,-5 -50,5 0,18 284,208 371,247 54,25 96,4 48,-24 -128,-75 -297,-189 -290,-195 10,-11 91,33 135,74 19,18 81,57 137,86 l 102,52 -66,36 c -147,79 -197,97 -197,69 z m 320,-179 c 0,-9 -43,-40 -95,-69 -52,-28 -126,-75 -164,-103 -69,-51 -135,-69 -111,-31 13,21 200,146 290,193 58,31 80,34 80,10 z m 109,-100 c -94,-81 -235,-165 -262,-155 -39,15 181,172 242,172 23,0 31,-7 20,-17 z m 51,-40 c 0,-33 -181,-147 -214,-134 -26,10 -10,28 65,81 98,67 149,86 149,53 z"
       id="path4965"
       inkscape:connector-curvature="0"
       style="fill:#e5e5ed;fill-opacity:0.33139536;stroke:none;stroke-opacity:1" />
    <path
       d="m 3917,2945 c -4,-9 -51,-52 -105,-95 -126,-102 -188,-164 -261,-262 -32,-43 -64,-82 -70,-88 -52,-47 -76,-156 -35,-154 24,1 91,-4 149,-13 69,-9 105,-7 105,6 0,12 -40,21 -88,21 -100,0 -152,15 -152,44 0,12 33,14 85,5 123,-21 253,-13 321,21 32,16 65,25 73,21 8,-5 14,17 14,50 0,63 -21,78 -40,29 -20,-52 -139,-110 -227,-110 -111,0 -200,34 -170,64 17,17 36,17 73,0 140,-64 353,72 350,222 -1,31 -8,23 -27,-30 -48,-134 -143,-188 -292,-166 -78,12 -85,17 -55,39 19,14 35,37 35,50 0,17 17,21 49,13 27,-7 54,-4 60,6 6,11 -7,22 -30,26 -38,5 -36,12 30,75 73,71 117,17 46,-57 -20,-22 -19,-25 5,-18 19,6 30,35 30,83 0,73 38,114 57,63 33,-86 -48,-202 -161,-228 -63,-15 -67,-18 -22,-20 132,-5 229,106 209,237 -11,65 -6,78 37,101 28,15 50,39 50,53 0,29 -32,37 -43,12 z"
       id="path4967"
       inkscape:connector-curvature="0"
       style="fill:#e5e5ed;fill-opacity:0.33139536;stroke:none;stroke-opacity:1" />
    <path
       d="m 1210,2798 c -110,-67 -203,-125 -207,-129 -22,-21 150,-319 182,-316 22,2 40,-16 47,-45 10,-39 25,-48 82,-48 68,0 70,1 42,45 -16,25 -54,88 -85,140 -30,52 -58,95 -62,95 -14,0 17,-68 65,-145 51,-82 59,-123 21,-110 -34,11 -155,253 -155,309 0,31 -12,46 -37,46 -20,0 -42,6 -49,13 -14,13 288,207 322,207 10,0 30,14 44,30 45,54 -7,31 -210,-92 z m -61,-307 c 57,-120 59,-131 32,-131 -18,0 -121,207 -121,244 0,41 40,-10 89,-113 z"
       id="path4969"
       inkscape:connector-curvature="0"
       style="fill:#e5e5ed;fill-opacity:0.33139536;stroke:none;stroke-opacity:1" />
    <path
       d="m 1304,2778 c -91,-57 -162,-107 -157,-112 9,-9 353,193 353,207 0,20 -45,-2 -196,-95 z"
       id="path4971"
       inkscape:connector-curvature="0"
       style="fill:#e5e5ed;fill-opacity:0.33139536;stroke:none;stroke-opacity:1" />
    <path
       d="m 2420,2742 c -27,-20 -99,-55 -160,-78 -100,-38 -104,-42 -46,-43 35,-1 69,7 75,17 6,11 36,25 66,31 53,13 145,75 145,99 0,21 -29,12 -80,-26 z"
       id="path4973"
       inkscape:connector-curvature="0"
       style="fill:#e5e5ed;fill-opacity:0.33139536;stroke:none;stroke-opacity:1" />
    <path
       d="m 794,2591 c 30,-61 57,-107 61,-102 9,9 -92,211 -105,211 -5,0 15,-49 44,-109 z"
       id="path4975"
       inkscape:connector-curvature="0"
       style="fill:#e5e5ed;fill-opacity:0.33139536;stroke:none;stroke-opacity:1" />
    <path
       d="m 2020,2563 c 0,-9 36,-33 81,-53 56,-26 73,-42 55,-53 -14,-9 -17,-16 -6,-16 80,0 68,39 -27,87 -57,29 -103,45 -103,35 z"
       id="path4977"
       inkscape:connector-curvature="0"
       style="fill:#e5e5ed;fill-opacity:0.33139536;stroke:none;stroke-opacity:1" />
    <path
       d="m 974,2548 c -9,-10 38,-98 100,-186 3,-5 10,-5 14,0 13,13 -100,199 -114,186 z"
       id="path4979"
       inkscape:connector-curvature="0"
       style="fill:#e5e5ed;fill-opacity:0.33139536;stroke:none;stroke-opacity:1" />
    <path
       d="m 100,2488 c 0,-24 -12,-29 -50,-20 -29,7 -50,4 -50,-8 0,-11 19,-20 42,-20 35,0 39,-5 19,-29 -13,-16 -21,-45 -16,-65 6,-26 19,-11 44,49 19,47 43,85 53,85 10,0 18,9 18,20 0,11 -13,20 -30,20 -16,0 -30,-14 -30,-32 z"
       id="path4981"
       inkscape:connector-curvature="0"
       style="fill:#e5e5ed;fill-opacity:0.33139536;stroke:none;stroke-opacity:1" />
    <path
       d="m 1995,2486 c -19,-5 -35,-23 -35,-40 0,-25 6,-26 29,-7 30,25 71,13 71,-19 0,-9 -19,-23 -42,-30 -22,-8 -37,-18 -31,-23 18,-18 103,43 103,73 0,29 -29,62 -50,57 -5,-1 -26,-6 -45,-11 z"
       id="path4983"
       inkscape:connector-curvature="0"
       style="fill:#e5e5ed;fill-opacity:0.33139536;stroke:none;stroke-opacity:1" />
    <path
       d="m 180,2451 c 0,-15 16,-33 35,-39 77,-25 91,-89 30,-141 -30,-26 -48,-55 -39,-64 9,-9 32,4 50,28 51,66 120,42 116,-42 -3,-85 -25,-114 -78,-104 -24,4 -51,9 -59,10 -8,0 -15,14 -15,30 0,16 -27,57 -60,91 -68,69 -81,52 -20,-25 42,-54 50,-86 25,-100 -8,-5 -4,-6 9,-3 33,8 235,-68 243,-92 3,-11 16,-20 28,-20 12,0 2,22 -23,48 -29,31 -37,52 -23,61 12,8 17,22 10,32 -6,10 1,14 17,8 15,-6 49,-3 76,7 39,15 351,-7 374,-26 11,-9 -36,-102 -76,-148 -38,-44 -43,-45 -77,-15 -20,18 -56,33 -80,33 -45,0 -58,28 -23,50 27,17 25,90 -2,90 -12,0 -17,-13 -12,-28 12,-31 -64,-112 -104,-112 -14,0 -21,-11 -16,-25 5,-14 21,-21 36,-17 67,21 142,-1 249,-72 62,-42 137,-92 166,-111 29,-19 63,-49 76,-66 21,-29 30,-29 90,3 146,76 372,24 478,-109 l 48,-60 31,47 c 31,47 32,47 56,10 20,-33 17,-42 -18,-61 -35,-19 -39,-34 -27,-106 14,-90 37,-128 57,-96 7,11 4,26 -8,33 -34,21 -22,45 30,58 28,7 50,26 50,41 0,39 -43,131 -61,131 -8,0 -20,20 -27,45 -17,66 -196,189 -302,206 -22,4 -61,13 -88,21 -36,11 -45,7 -38,-14 5,-15 29,-25 53,-22 27,4 43,-4 43,-23 0,-20 -22,-29 -70,-29 -55,0 -70,8 -70,38 0,23 -13,37 -35,36 -21,-1 -25,-5 -10,-11 36,-15 31,-87 -6,-87 -17,0 -57,-13 -89,-30 -54,-28 -58,-27 -70,10 -7,22 -30,40 -51,40 -22,0 -39,9 -39,20 0,11 14,20 30,20 17,0 30,10 30,22 0,13 -19,18 -46,11 -39,-10 -80,6 -151,59 -3,3 14,33 39,66 48,65 98,82 98,34 0,-16 11,-33 25,-38 20,-7 20,-18 1,-49 -30,-51 40,-77 124,-45 29,11 75,20 101,20 27,0 49,8 49,18 0,10 -18,14 -40,8 -29,-8 -45,3 -60,43 -26,69 -26,191 0,191 11,0 20,9 20,20 0,45 -38,16 -59,-45 -14,-41 -28,-56 -37,-41 -18,29 -116,71 -184,78 -27,3 -72,9 -100,14 -27,5 -81,10 -120,12 -38,1 -61,9 -49,17 25,18 33,165 9,165 -10,0 -20,-38 -24,-85 -6,-80 -10,-85 -61,-79 -30,3 -55,-4 -55,-17 0,-12 -16,-19 -35,-15 -20,4 -35,24 -35,47 0,39 -184,268 -215,269 -8,0 -15,-13 -15,-29 z m 875,-430 c 53,-78 58,-132 13,-149 -44,-17 -68,3 -68,56 0,25 -18,62 -40,82 -31,28 -35,42 -17,64 32,38 59,24 112,-53 z m 405,-236 c 0,-8 -8,-27 -18,-43 -22,-35 -64,-11 -49,29 11,29 67,41 67,14 z m 86,-33 c 14,-35 -2,-52 -49,-52 -43,0 -47,22 -13,56 31,31 49,30 62,-4 z m 67,-62 c 6,-16 24,-30 39,-30 34,0 36,-24 4,-56 -30,-30 -56,-31 -56,-1 0,12 -15,33 -33,47 -18,13 -27,34 -19,47 20,32 51,29 65,-7 z"
       id="path4985"
       inkscape:connector-curvature="0"
       style="fill:#e5e5ed;fill-opacity:0.33139536;stroke:none;stroke-opacity:1" />
    <path
       d="m 1439,2382 c 22,-32 41,-73 41,-90 0,-23 19,-32 68,-32 58,0 67,6 58,40 -6,22 -18,40 -28,40 -9,0 -12,-13 -5,-30 24,-64 -46,-26 -93,50 -27,44 -57,80 -66,80 -9,0 2,-26 25,-58 z"
       id="path4987"
       inkscape:connector-curvature="0"
       style="fill:#e5e5ed;fill-opacity:0.33139536;stroke:none;stroke-opacity:1" />
    <path
       d="m 1784,2381 c 30,-47 20,-59 -52,-65 -30,-3 -63,-15 -73,-28 -17,-20 151,4 179,26 13,10 -43,106 -62,106 -9,0 -5,-18 8,-39 z"
       id="path4989"
       inkscape:connector-curvature="0"
       style="fill:#e5e5ed;fill-opacity:0.33139536;stroke:none;stroke-opacity:1" />
    <path
       d="m 3780,2361 c 0,-11 -13,-15 -30,-8 -16,6 -30,3 -30,-7 0,-10 47,-27 105,-37 l 105,-19 3,-83 3,-83 -83,4 c -69,4 -83,12 -83,47 0,23 -8,49 -18,58 -18,17 -4,-144 20,-228 10,-36 5,-45 -28,-45 -23,0 -48,-10 -55,-21 -9,-15 10,-17 59,-8 47,9 83,5 102,-11 24,-20 37,-19 63,3 31,25 33,18 21,-78 -7,-64 -4,-105 8,-105 11,0 18,57 15,140 -4,114 -37,213 -37,110 0,-43 -45,-37 -98,12 -65,61 -13,119 75,85 l 57,-21 3,100 c 5,135 -10,174 -67,174 -26,0 -53,9 -60,20 -16,26 -50,26 -50,1 z"
       id="path4991"
       inkscape:connector-curvature="0"
       style="fill:#e5e5ed;fill-opacity:0.33139536;stroke:none;stroke-opacity:1" />
    <path
       d="m 7,2232 c -1,-65 2,-73 15,-37 9,25 26,45 37,45 33,0 25,28 -14,52 -32,20 -36,14 -38,-60 z"
       id="path4993"
       inkscape:connector-curvature="0"
       style="fill:#e5e5ed;fill-opacity:0.33139536;stroke:none;stroke-opacity:1" />
    <path
       d="m 198,2013 c 12,-16 17,-43 10,-60 -7,-18 -2,-33 10,-33 12,0 22,23 22,50 0,51 27,67 50,30 7,-11 22,-20 34,-20 13,0 12,11 -4,30 -14,17 -52,30 -85,30 -49,0 -56,-5 -37,-27 z"
       id="path4995"
       inkscape:connector-curvature="0"
       style="fill:#e5e5ed;fill-opacity:0.33139536;stroke:none;stroke-opacity:1" />
    <path
       d="m 3505,2026 c 19,-5 35,-21 35,-35 0,-27 96,-62 116,-42 6,6 -4,11 -22,11 -18,0 -42,18 -54,40 -12,23 -40,39 -66,38 -34,-2 -36,-5 -9,-12 z"
       id="path4997"
       inkscape:connector-curvature="0"
       style="fill:#e5e5ed;fill-opacity:0.33139536;stroke:none;stroke-opacity:1" />
    <path
       d="m 360,1985 c 0,-12 14,-26 32,-33 18,-7 27,-25 21,-42 -7,-17 -3,-30 7,-30 26,0 48,-132 29,-175 -8,-19 -14,-42 -12,-50 11,-54 -151,-137 -179,-92 -13,20 -17,20 -18,2 0,-14 -18,-25 -39,-25 -27,0 -36,10 -28,30 6,17 29,30 50,30 22,0 34,9 27,21 -7,11 -24,18 -37,16 -39,-6 -93,26 -93,55 0,32 32,37 50,8 21,-35 86,-22 118,23 17,24 24,53 17,65 -7,12 -19,0 -25,-28 -10,-39 -23,-49 -61,-44 -98,12 -143,7 -166,-17 -18,-19 -15,-22 13,-12 28,10 35,4 30,-22 -4,-19 -23,-34 -41,-32 -58,4 -2,-69 77,-103 232,-97 433,134 318,365 -33,66 -90,123 -90,90 z M 156,1593 c 4,-19 -6,-33 -23,-33 -38,0 -60,33 -42,61 18,29 58,13 65,-28 z"
       id="path4999"
       inkscape:connector-curvature="0"
       style="fill:#e5e5ed;fill-opacity:0.33139536;stroke:none;stroke-opacity:1" />
    <path
       d="m 53,1964 c -8,-12 1,-30 19,-40 18,-10 29,-30 25,-44 -7,-19 -16,-18 -41,6 -30,31 -56,26 -56,-11 0,-9 9,-12 19,-6 23,15 68,-62 51,-88 -6,-11 8,-15 32,-11 55,11 75,30 31,30 -45,0 -42,46 7,90 46,42 55,87 9,49 -25,-20 -35,-19 -57,11 -17,24 -31,29 -39,14 z"
       id="path5001"
       inkscape:connector-curvature="0"
       style="fill:#e5e5ed;fill-opacity:0.33139536;stroke:none;stroke-opacity:1" />
    <path
       d="m 370,1743 c -5,-5 -10,-27 -10,-48 0,-22 -17,-43 -40,-49 -22,-6 -40,-19 -40,-28 0,-48 91,9 125,79 27,52 3,84 -35,46 z"
       id="path5003"
       inkscape:connector-curvature="0"
       style="fill:#e5e5ed;fill-opacity:0.33139536;stroke:none;stroke-opacity:1" />
    <path
       d="m 3779,1623 c -33,-39 -56,-83 -50,-97 5,-14 1,-26 -10,-26 -10,0 -19,-22 -19,-50 0,-27 -7,-50 -16,-50 -8,0 -17,-18 -19,-40 -4,-63 25,-47 46,25 16,56 27,64 76,59 31,-3 67,3 80,14 14,11 36,13 50,4 19,-12 18,-21 -7,-42 -26,-21 -27,-30 -6,-45 20,-13 20,-20 2,-28 -13,-5 -18,-23 -12,-40 9,-25 -4,-29 -71,-25 -45,4 -83,0 -83,-8 -1,-69 6,-91 45,-136 58,-68 176,-98 173,-45 0,21 -6,26 -11,13 -10,-26 -58,-7 -132,52 -36,29 -50,114 -15,92 79,-49 150,12 151,131 l 0,118 -90,-5 c -71,-3 -91,3 -97,31 -10,50 94,140 151,129 26,-5 45,1 45,15 0,56 -120,25 -181,-46 z"
       id="path5005"
       inkscape:connector-curvature="0"
       style="fill:#e5e5ed;fill-opacity:0.33139536;stroke:none;stroke-opacity:1" />
    <path
       d="m 1809,1328 c 14,-72 13,-73 -47,-64 -64,9 -82,-11 -82,-91 0,-80 -171,-313 -229,-313 -17,0 -31,-8 -31,-18 0,-42 -212,-89 -404,-89 -106,-1 -190,-7 -186,-14 5,-6 -4,-35 -19,-63 -65,-126 479,-96 694,38 41,25 79,46 84,46 23,0 111,89 111,111 0,14 14,30 30,36 44,17 37,67 -11,79 -33,9 -37,6 -18,-17 31,-38 8,-67 -46,-57 -37,7 -39,6 -8,-8 51,-22 -5,-71 -59,-51 -34,13 -35,11 -10,-20 32,-39 18,-63 -27,-46 -48,18 -37,67 31,138 34,36 70,86 80,111 10,26 26,41 37,35 10,-6 25,-1 33,12 9,14 6,18 -9,9 -14,-9 -23,1 -23,26 0,30 9,37 35,28 47,-17 68,-52 42,-68 -12,-7 -17,-30 -12,-50 7,-31 13,-27 34,22 34,79 48,350 18,350 -14,0 -17,-25 -8,-72 z m 6,-123 c 5,-14 -6,-30 -24,-37 -37,-14 -96,27 -79,55 16,26 93,13 103,-18 z M 1520,772 c 0,-33 -126,-85 -136,-55 -4,12 -15,23 -25,23 -10,0 -13,-13 -7,-28 6,-15 0,-35 -13,-43 -27,-16 -60,26 -47,60 11,29 128,74 128,49 0,-10 10,-18 21,-18 12,0 16,9 9,20 -7,11 -7,29 1,41 15,25 69,-13 69,-49 z M 900,700 c 0,-47 31,-53 47,-10 7,17 21,30 32,30 12,0 21,-13 21,-30 0,-16 9,-30 20,-30 11,0 20,14 20,30 0,17 9,30 20,30 11,0 20,-13 20,-30 0,-16 9,-30 20,-30 11,0 20,14 20,30 0,17 14,30 31,30 93,0 18,-88 -81,-95 -185,-13 -284,34 -217,102 26,25 47,13 47,-27 z m 366,0 c 12,-45 -20,-74 -48,-46 -21,21 -4,86 22,86 8,0 20,-18 26,-40 z"
       id="path5007"
       inkscape:connector-curvature="0"
       style="fill:#e5e5ed;fill-opacity:0.33139536;stroke:none;stroke-opacity:1" />
    <path
       d="m 3620,1261 c 0,-21 8,-44 19,-50 10,-6 14,-56 9,-111 -10,-112 21,-137 40,-32 8,40 3,91 -12,123 -20,44 -20,58 -1,64 40,13 29,45 -15,45 -26,0 -40,-13 -40,-39 z"
       id="path5009"
       inkscape:connector-curvature="0"
       style="fill:#e5e5ed;fill-opacity:0.33139536;stroke:none;stroke-opacity:1" />
    <path
       d="M 0,1002 C 0,991 34,963 75,942 271,842 263,536 62,454 -10,424 -10,424 47,422 217,416 326,699 215,859 168,928 0,1040 0,1002 Z"
       id="path5011"
       inkscape:connector-curvature="0"
       style="fill:#e5e5ed;fill-opacity:0.33139536;stroke:none;stroke-opacity:1" />
    <path
       d="m 3740,991 c -27,-16 -66,-30 -85,-30 -19,-1 -35,-11 -35,-23 0,-12 -18,-45 -40,-73 -43,-54 -53,-105 -20,-105 11,0 20,12 20,26 0,75 156,181 269,182 64,1 108,10 104,22 -10,32 -158,32 -213,1 z"
       id="path5013"
       inkscape:connector-curvature="0"
       style="fill:#e5e5ed;fill-opacity:0.33139536;stroke:none;stroke-opacity:1" />
    <path
       d="m 0,883 c 0,-9 21,-27 46,-41 65,-35 88,-83 72,-152 -10,-45 -14,-49 -16,-16 -2,46 -51,106 -87,106 -12,0 -2,-22 23,-48 36,-38 43,-62 32,-110 -16,-73 1,-79 55,-17 56,65 37,189 -39,250 -59,47 -86,56 -86,28 z"
       id="path5015"
       inkscape:connector-curvature="0"
       style="fill:#e5e5ed;fill-opacity:0.33139536;stroke:none;stroke-opacity:1" />
    <path
       d="m 3717,844 c -67,-61 -118,-271 -76,-313 10,-10 19,-33 19,-50 0,-64 131,-171 255,-210 69,-21 53,16 -20,47 -102,44 -195,121 -195,162 0,21 -9,43 -20,50 -11,6 -16,41 -12,76 4,35 9,84 10,108 4,80 100,149 197,142 58,-4 85,2 85,19 0,52 -174,30 -243,-31 z"
       id="path5017"
       inkscape:connector-curvature="0"
       style="fill:#e5e5ed;fill-opacity:0.33139536;stroke:none;stroke-opacity:1" />
    <path
       d="m 3870,781 c -146,-27 -160,-295 -18,-342 99,-32 131,-12 45,29 -66,31 -87,60 -108,150 -10,44 68,131 128,142 29,6 44,16 33,22 -11,6 -47,6 -80,-1 z"
       id="path5019"
       inkscape:connector-curvature="0"
       style="fill:#e5e5ed;fill-opacity:0.33139536;stroke:none;stroke-opacity:1" />
    <path
       d="m 3256,613 c -142,-54 -195,-81 -243,-126 -85,-78 -61,-97 27,-22 83,72 244,135 341,135 31,0 62,9 69,21 15,24 -124,18 -194,-8 z"
       id="path5021"
       inkscape:connector-curvature="0"
       style="fill:#e5e5ed;fill-opacity:0.33139536;stroke:none;stroke-opacity:1" />
    <path
       d="m 3249,509 c -38,-31 -37,-32 11,-21 28,6 84,12 125,12 41,0 75,9 75,20 0,32 -168,23 -211,-11 z"
       id="path5023"
       inkscape:connector-curvature="0"
       style="fill:#e5e5ed;fill-opacity:0.33139536;stroke:none;stroke-opacity:1" />
    <path
       d="m 3140,460 c 0,-11 -9,-20 -20,-20 -23,0 -63,-33 -227,-185 -68,-63 -139,-120 -158,-126 -19,-7 -35,-20 -35,-30 0,-28 -55,-23 -65,6 -5,14 29,52 75,86 126,90 236,190 223,203 -6,6 -61,-34 -123,-88 -61,-55 -136,-112 -166,-127 -29,-15 -57,-29 -60,-31 -11,-7 85,-147 100,-148 8,0 10,12 4,28 -6,17 19,45 66,74 42,26 136,101 209,167 171,155 191,171 216,171 12,0 21,9 21,20 0,11 -13,20 -30,20 -16,0 -30,-9 -30,-20 z"
       id="path5025"
       inkscape:connector-curvature="0"
       style="fill:#e5e5ed;fill-opacity:0.33139536;stroke:none;stroke-opacity:1" />
    <path
       d="M 3223,385 C 3164,355 3061,277 2993,213 2925,148 2845,74 2813,48 2782,22 2763,0 2771,0 c 33,0 147,85 221,164 125,135 305,235 468,262 28,5 10,10 -40,11 -62,2 -123,-14 -197,-52 z"
       id="path5027"
       inkscape:connector-curvature="0"
       style="fill:#e5e5ed;fill-opacity:0.33139536;stroke:none;stroke-opacity:1" />
    <path
       d="M 368,251 C 314,213 165,175 75,177 -6,178 -29,147 45,136 c 43,-7 189,13 259,35 29,10 31,3 15,-55 -23,-79 -25,-128 -4,-108 8,8 24,61 36,118 16,81 28,103 55,98 19,-3 34,3 34,14 0,35 -33,41 -72,13 z"
       id="path5029"
       inkscape:connector-curvature="0"
       style="fill:#e5e5ed;fill-opacity:0.33139536;stroke:none;stroke-opacity:1" />
    <path
       d="m 532,223 c -7,-11 -7,-34 0,-51 9,-23 0,-32 -30,-32 -23,0 -42,-8 -42,-18 0,-10 18,-14 40,-8 34,9 40,1 40,-52 0,-34 8,-62 18,-62 10,0 14,51 9,114 -10,122 -16,140 -35,109 z"
       id="path5031"
       inkscape:connector-curvature="0"
       style="fill:#e5e5ed;fill-opacity:0.33139536;stroke:none;stroke-opacity:1" />
    <path
       d="m 3670,200 c -48,-12 -34,-16 65,-18 97,-1 125,-9 125,-32 0,-16 -11,-30 -25,-31 -252,-6 -550,-79 -459,-113 14,-5 36,-1 50,10 67,55 354,107 354,64 0,-11 -10,-20 -21,-20 -12,0 -16,-8 -10,-18 6,-10 0,-23 -14,-29 -14,-5 -16,-11 -4,-11 12,-1 52,30 89,68 37,39 84,70 104,70 63,0 39,37 -39,59 -84,23 -127,23 -215,1 z"
       id="path5033"
       inkscape:connector-curvature="0"
       style="fill:#e5e5ed;fill-opacity:0.33139536;stroke:none;stroke-opacity:1" />
    <path
       d="M 3438,152 C 3314,102 3138,-13 3220,11 c 28,7 64,24 80,37 47,37 122,71 218,99 55,17 77,31 58,38 -16,6 -78,-8 -138,-33 z"
       id="path5035"
       inkscape:connector-curvature="0"
       style="fill:#e5e5ed;fill-opacity:0.33139536;stroke:none;stroke-opacity:1" />
    <path
       d="m 2420,169 c 0,-9 25,-42 55,-74 40,-42 48,-61 29,-73 -16,-9 -1,-15 38,-15 l 64,0 -58,50 c -32,27 -53,54 -48,59 6,5 -10,23 -35,39 -25,16 -45,23 -45,14 z"
       id="path5037"
       inkscape:connector-curvature="0"
       style="fill:#e5e5ed;fill-opacity:0.33139536;stroke:none;stroke-opacity:1" />
    <path
       d="m 1210,80 c -7,-11 -34,-20 -61,-20 -27,0 -49,-9 -49,-20 0,-11 -20,-21 -45,-22 -25,0 -34,-6 -21,-11 13,-5 58,1 100,13 144,42 282,47 335,12 60,-39 93,-41 80,-6 -23,59 -308,105 -339,54 z"
       id="path5039"
       inkscape:connector-curvature="0"
       style="fill:#e5e5ed;fill-opacity:0.33139536;stroke:none;stroke-opacity:1" />
    <path
       d="m 2045,66 c -44,-16 -27,-56 25,-59 28,-1 50,4 50,13 0,26 -48,55 -75,46 z"
       id="path5041"
       inkscape:connector-curvature="0"
       style="fill:#e5e5ed;fill-opacity:0.33139536;stroke:none;stroke-opacity:1" />
    <path
       d="m 3863,33 c -18,-22 -11,-27 37,-29 33,-1 60,8 60,19 0,10 -9,14 -20,7 -11,-7 -20,-3 -20,9 0,29 -31,26 -57,-6 z"
       id="path5043"
       inkscape:connector-curvature="0"
       style="fill:#e5e5ed;fill-opacity:0.33139536;stroke:none;stroke-opacity:1" />
  </g>
</svg>
